# xmcd
#
# Track frame offsets: 
#        150
#        18515
#        34747
#        49707
#        67537
#        86785
#        105730
#        122107
#        138132
#        153980
#
# Disc length: 2267 seconds
#
# Revision: 7
# Processed by: cddbd v1.5.2PL0 Copyright (c) Steve Scherf et al.
# Submitted via: ExactAudioCopyFreeDBPlugin 1.0
#
DISCID=7708d90a
DTITLE=Alabama - Super Hits
DYEAR=1996
DGENRE=Country
TTITLE0=My Home's in Alabama
TTITLE1=Feels So Right
TTITLE2=Love in the First Degree
TTITLE3=Dixieland Delight
TTITLE4=Roll on (Eighteen Wheeler)
TTITLE5=There's No Way
TTITLE6=The Closer You Get
TTITLE7=Forever's as Far as I'll Go
TTITLE8=Give Me One More Shot
TTITLE9=In Pictures
EXTD=0\n\n\nCompilation produced by Steve Lindsey for MaxAmor Producti
EXTD=ons.\r\nMembers of Alabama:  Randy Owen, Mark Herndon, Teddy Gent
EXTD=ry, and  Jeff \r\nCook. YEAR: 1996
EXTT0=Randy Owen - Teddy Gentry (BMI)\r\nProduced by Harold Shedd, Lar
EXTT0=ry McBride and Alabama for MDJ Productions, \r\nInc.
EXTT1=Randy Owen (BMI)\r\nProduced by Alabama, Larry McBride and Harol
EXTT1=d Shedd
EXTT2=Jim Hurt - Tim Dubois (BMI)\r\nProduced by Alabama, Larry McBrid
EXTT2=e and Harold Shedd
EXTT3=Ronnie Rogers (BMI)\r\nProduced by Harold Shedd and Alabama
EXTT4=Dave Loggins (ASCAP)\r\nProduced by Harold Shedd and Alabama
EXTT5=Lisa Palas - Will Robinson - John Jarrard (ASCAP)\r\nProduced by
EXTT5=Harold Shedd and Alabama
EXTT6=James P. Pennington - Mark Gray (BMI)\r\nProduced by Harold Shed
EXTT6=d and Alabama
EXTT7=Mike Reid (ASCAP)\r\nProduced by Josh Leo, Larry Michael Lee and
EXTT7=Alabama
EXTT8=Teddy Gentry - Randy Owen - Ronnie Rogers (BMI)\r\nProduced by G
EXTT8=arth Fundis and Alabama
EXTT9=Joe Doyle - Bobby E. Boyd (ASCAP - BMI)\r\nProduced by Emory Gor
EXTT9=dy, Jr. and Alabama
PLAYORDER=
